<svg width="361" height="154" viewBox="0 0 361 154" fill="none" xmlns="http://www.w3.org/2000/svg">
    <path fill-rule="evenodd" clip-rule="evenodd" d="M233.193 4.85621C266.522 4.85621 293.613 34.9518 294.233 72.3423C329.069 70.4305 358.821 101.938 360.867 143.129C361.046 146.73 361.007 150.286 360.764 153.78H103.599C105.039 110.581 135.176 76.0806 172.142 76.0806L172.179 76.0806C172.154 75.2747 172.142 74.4653 172.142 73.6525C172.142 35.6574 199.475 4.85621 233.193 4.85621Z" fill="#333333"/>
    <path fill-rule="evenodd" clip-rule="evenodd" d="M274.351 153.78H7.81483C2.86292 145.16 0 134.967 0 124.044C0 93.0745 23.0133 67.9691 51.4016 67.9691C55.8007 67.9691 60.0707 68.5719 64.146 69.706C72.6318 29.7708 105.548 0 144.859 0C188.268 0 223.878 36.2994 227.409 82.5009C254.539 90.8522 274.425 118.081 274.425 150.382C274.425 151.521 274.4 152.654 274.351 153.78Z" fill="black"/>
</svg>
