<svg width="155" height="154" viewBox="0 0 155 154" fill="none" xmlns="http://www.w3.org/2000/svg">
<ellipse cx="77.4353" cy="76.89" rx="32.7192" ry="32.1738" fill="#FF8F5E"/>
<rect x="75.754" y="0.5" width="3.36255" height="30.6285" rx="1.5" fill="black" stroke="black"/>
<rect x="31.245" y="33.2578" width="3.36255" height="17.5409" rx="1.5" transform="rotate(-45 31.245 33.2578)" fill="black" stroke="black"/>
<rect x="28.1695" y="127.262" width="3.36255" height="24.0847" rx="1.5" transform="rotate(-135 28.1695 127.262)" fill="black" stroke="black"/>
<rect x="111.423" y="45.0997" width="3.36255" height="17.5409" rx="1.5" transform="rotate(-135 111.423 45.0997)" fill="black" stroke="black"/>
<rect x="111.226" y="112.149" width="3.36255" height="22.994" rx="1.5" transform="rotate(-45 111.226 112.149)" fill="black" stroke="black"/>
<rect x="75.754" y="122.651" width="3.36255" height="30.6285" rx="1.5" fill="black" stroke="black"/>
<rect x="123.742" y="79.1166" width="3.36255" height="30.6285" rx="1.5" transform="rotate(-90 123.742 79.1166)" fill="black" stroke="black"/>
<rect x="0.5" y="79.1166" width="3.36255" height="30.6285" rx="1.5" transform="rotate(-90 0.5 79.1166)" fill="black" stroke="black"/>
</svg>
