<svg width="237" height="154" viewBox="0 0 237 154" fill="none" xmlns="http://www.w3.org/2000/svg">
<ellipse cx="62.909" cy="55.2202" rx="55.9192" ry="55.2202" fill="#FFDC5E"/>
<path fill-rule="evenodd" clip-rule="evenodd" d="M236.936 153.778H6.74907C2.47249 146.333 0 137.53 0 128.097C0 101.351 19.8748 79.6694 44.3916 79.6694C48.1908 79.6694 51.8785 80.19 55.398 81.1695C62.7265 46.6805 91.1534 20.9697 125.104 20.9697C162.592 20.9697 193.346 52.3188 196.396 92.2194C219.826 99.4318 237 122.947 237 150.843C237 151.827 236.979 152.805 236.936 153.778Z" fill="black"/>
<rect x="105.316" y="100.415" width="5.59192" height="30.7555" rx="2" transform="rotate(-45 105.316 100.415)" fill="black"/>
<rect x="60.1131" y="113.236" width="5.59192" height="40.5414" rx="2" fill="black"/>
<rect x="121.624" y="58.7151" width="5.59192" height="40.5414" rx="2" transform="rotate(-90 121.624 58.7151)" fill="black"/>
</svg>
