<svg width="178" height="157" viewBox="0 0 178 157" fill="none" xmlns="http://www.w3.org/2000/svg">
<path fill-rule="evenodd" clip-rule="evenodd" d="M177.835 99.6806H5.06559C1.85575 94.0932 0 87.4857 0 80.4053C0 60.3311 14.9173 44.0577 33.3187 44.0577C36.1702 44.0577 38.938 44.4485 41.5796 45.1836C47.0801 19.2975 68.4162 0 93.898 0C122.036 0 145.118 23.5294 147.407 53.4773C164.993 58.8906 177.883 76.5402 177.883 97.4777C177.883 98.2162 177.867 98.9507 177.835 99.6806Z" fill="black"/>
<line x1="39.5243" y1="111.423" x2="33.0858" y2="126.927" stroke="#007DD7" stroke-width="7"/>
<line x1="19.1557" y1="111.516" x2="15.9364" y2="119.268" stroke="#007DD7" stroke-width="7"/>
<line x1="60.0772" y1="111.516" x2="49.6146" y2="136.711" stroke="#007DD7" stroke-width="7"/>
<line x1="81.0626" y1="111.516" x2="66.1735" y2="147.37" stroke="#007DD7" stroke-width="7"/>
<line x1="102.048" y1="111.516" x2="83.9396" y2="155.122" stroke="#007DD7" stroke-width="7"/>
<line x1="123.033" y1="111.516" x2="106.937" y2="150.277" stroke="#007DD7" stroke-width="7"/>
<line x1="144.019" y1="111.516" x2="129.13" y2="147.37" stroke="#007DD7" stroke-width="7"/>
<line x1="165.004" y1="111.516" x2="151.322" y2="144.463" stroke="#007DD7" stroke-width="7"/>
</svg>
