<svg width="174" height="189" viewBox="0 0 174 189" fill="none" xmlns="http://www.w3.org/2000/svg">
<path fill-rule="evenodd" clip-rule="evenodd" d="M86.7599 0C84.4344 0 82.5492 1.88521 82.5492 4.21072V12.8931L75.0396 5.38354C73.3952 3.73915 70.7291 3.73915 69.0848 5.38354C67.4404 7.02793 67.4404 9.69401 69.0848 11.3384L80.9945 23.2481C81.449 23.7027 81.9816 24.0316 82.5492 24.2348V58.7687L71.9246 69.3932L57.877 73.1573L27.1589 55.4221C27.1628 55.0473 27.1164 54.6657 27.0146 54.2859L22.6553 38.017C22.0535 35.7707 19.7446 34.4377 17.4983 35.0396C15.252 35.6414 13.919 37.9503 14.5209 40.1966L17.0342 49.5767L10.0718 45.5569C8.05786 44.3942 5.48263 45.0842 4.31987 47.0982C3.15711 49.1121 3.84715 51.6874 5.8611 52.8501L13.3802 57.1913L3.12199 59.94C0.875715 60.5419 -0.457324 62.8508 0.144563 65.097C0.746451 67.3433 3.05535 68.6763 5.30162 68.0745L21.5706 63.7152C22.1915 63.5488 22.7427 63.252 23.2025 62.8621L53.1096 80.129L56.9606 94.5013L53.3449 107.995L22.6267 125.73C22.3041 125.54 21.9504 125.389 21.5705 125.287L5.30158 120.928C3.0553 120.326 0.746409 121.659 0.144521 123.905C-0.457365 126.152 0.875677 128.461 3.12195 129.062L12.5021 131.576L5.53956 135.596C3.52561 136.758 2.83558 139.334 3.99833 141.348C5.16109 143.362 7.73633 144.052 9.75029 142.889L17.2695 138.548L14.5208 148.806C13.9189 151.052 15.252 153.361 17.4982 153.963C19.7445 154.565 22.0534 153.232 22.6553 150.986L27.0145 134.717C27.1809 134.096 27.1994 133.47 27.0917 132.877L56.999 115.61L72.0645 119.647L81.9063 129.488V164.959C81.5797 165.143 81.2725 165.374 80.9945 165.652L69.0848 177.562C67.4404 179.206 67.4404 181.872 69.0848 183.516C70.7292 185.161 73.3952 185.161 75.0396 183.516L81.9063 176.65V184.689C81.9063 187.015 83.7915 188.9 86.117 188.9C88.4426 188.9 90.3278 187.015 90.3278 184.689L90.3278 176.007L97.8373 183.516C99.4817 185.161 102.148 185.161 103.792 183.516C105.437 181.872 105.437 179.206 103.792 177.562L91.8825 165.652C91.4279 165.197 90.8953 164.868 90.3278 164.665L90.3277 130.131L100.706 119.753C100.857 119.73 101.009 119.698 101.161 119.657L115.388 115.845L146.107 133.58C146.103 133.955 146.149 134.337 146.251 134.717L150.61 150.985C151.212 153.232 153.521 154.565 155.767 153.963C158.013 153.361 159.346 151.052 158.745 148.806L156.231 139.426L163.194 143.445C165.208 144.608 167.783 143.918 168.945 141.904C170.108 139.89 169.418 137.315 167.404 136.152L159.885 131.811L170.143 129.062C172.39 128.461 173.723 126.152 173.121 123.905C172.519 121.659 170.21 120.326 167.964 120.928L151.695 125.287C151.074 125.454 150.523 125.75 150.063 126.14L120.156 108.873L116.305 94.5013L119.921 81.0072L150.639 63.272C150.961 63.4628 151.315 63.6134 151.695 63.7152L167.964 68.0744C170.21 68.6763 172.519 67.3433 173.121 65.097C173.723 62.8507 172.39 60.5418 170.144 59.9399L160.763 57.4266L167.726 53.4068C169.74 52.244 170.43 49.6688 169.267 47.6549C168.104 45.6409 165.529 44.9509 163.515 46.1136L155.996 50.4548L158.745 40.1966C159.347 37.9503 158.014 35.6414 155.767 35.0395C153.521 34.4376 151.212 35.7707 150.61 38.017L146.251 54.2859C146.085 54.9068 146.066 55.5326 146.174 56.1257L116.266 73.3926L101.161 69.345C101.05 69.3154 100.94 69.2905 100.829 69.2702L90.9706 59.4116V23.9412C91.2972 23.7572 91.6044 23.5262 91.8825 23.2481L103.792 11.3384C105.437 9.69403 105.437 7.02795 103.792 5.38356C102.148 3.73917 99.4817 3.73917 97.8373 5.38356L90.9706 12.2503V4.21072C90.9706 1.8852 89.0854 0 86.7599 0ZM75.3657 111.981C76.128 112.147 76.8532 112.526 77.4457 113.118L86.4384 122.111L95.4312 113.118C96.1593 112.39 97.0877 111.984 98.039 111.901C98.3303 111.741 98.6454 111.613 98.9809 111.523L111.265 108.231L107.974 95.9471C107.844 95.4621 107.804 94.9742 107.844 94.5011C107.804 94.0282 107.844 93.5403 107.974 93.0554L111.265 80.7711L98.981 77.4795C98.561 77.367 98.173 77.1948 97.8236 76.9745C96.9484 76.8524 96.1042 76.4549 95.4312 75.7819L86.4384 66.7891L77.4457 75.7818C76.9197 76.3079 76.289 76.6657 75.6207 76.8551C75.2265 77.133 74.7775 77.3473 74.2845 77.4794L62.0001 80.771L65.2917 93.0553C65.4216 93.5401 65.4613 94.0279 65.4212 94.5008C65.4615 94.9739 65.4217 95.4619 65.2917 95.947L62.0002 108.231L74.2845 111.523C74.6742 111.627 75.0363 111.783 75.3657 111.981Z" fill="black"/>
<path fill-rule="evenodd" clip-rule="evenodd" d="M86.5644 72.2355C86.0118 72.2355 85.5639 72.6834 85.5639 73.2359V75.2988L83.7797 73.5146C83.389 73.1239 82.7556 73.1239 82.3649 73.5146C81.9742 73.9053 81.9742 74.5387 82.3649 74.9294L85.1946 77.7591C85.3026 77.8671 85.4291 77.9452 85.5639 77.9935V86.1985L83.0395 88.7229L79.702 89.6172L72.4036 85.4035C72.4045 85.3144 72.3935 85.2237 72.3693 85.1335L71.3336 81.2681C71.1906 80.7344 70.642 80.4176 70.1083 80.5606C69.5746 80.7036 69.2579 81.2522 69.4009 81.7859L69.998 84.0146L68.3438 83.0595C67.8653 82.7832 67.2534 82.9472 66.9772 83.4257C66.7009 83.9042 66.8649 84.5161 67.3434 84.7923L69.1299 85.8238L66.6925 86.4768C66.1588 86.6198 65.8421 87.1684 65.9851 87.7021C66.1281 88.2358 66.6767 88.5525 67.2104 88.4095L71.0758 87.3738C71.2233 87.3343 71.3543 87.2638 71.4635 87.1711L78.5693 91.2737L79.4843 94.6884L78.6252 97.8945L71.3268 102.108C71.2501 102.063 71.1661 102.027 71.0758 102.003L67.2104 100.967C66.6767 100.824 66.1281 101.141 65.9851 101.675C65.8421 102.208 66.1589 102.757 66.6926 102.9L68.9212 103.497L67.267 104.452C66.7885 104.728 66.6245 105.34 66.9008 105.819C67.1771 106.297 67.7889 106.461 68.2674 106.185L70.0539 105.154L69.4008 107.591C69.2578 108.125 69.5746 108.673 70.1083 108.816C70.642 108.959 71.1905 108.642 71.3335 108.109L72.3693 104.243C72.4088 104.096 72.4132 103.947 72.3876 103.806L79.4934 99.7036L83.0728 100.663L85.4112 103.001V111.429C85.3336 111.472 85.2606 111.527 85.1946 111.593L82.3649 114.423C81.9742 114.814 81.9742 115.447 82.3649 115.838C82.7556 116.229 83.389 116.229 83.7797 115.838L85.4112 114.206V116.117C85.4112 116.669 85.8591 117.117 86.4117 117.117C86.9642 117.117 87.4121 116.669 87.4121 116.117V114.054L89.1963 115.838C89.587 116.229 90.2205 116.229 90.6112 115.838C91.0019 115.447 91.0019 114.814 90.6112 114.423L87.7815 111.593C87.6735 111.485 87.5469 111.407 87.4121 111.359L87.4121 103.154L89.8779 100.688C89.9139 100.683 89.95 100.675 89.986 100.665L93.3664 99.7596L100.665 103.973C100.664 104.062 100.675 104.153 100.699 104.243L101.735 108.109C101.878 108.642 102.426 108.959 102.96 108.816C103.494 108.673 103.811 108.125 103.668 107.591L103.07 105.362L104.725 106.317C105.203 106.594 105.815 106.43 106.091 105.951C106.367 105.473 106.204 104.861 105.725 104.584L103.939 103.553L106.376 102.9C106.91 102.757 107.226 102.208 107.083 101.675C106.94 101.141 106.392 100.824 105.858 100.967L101.993 102.003C101.845 102.042 101.714 102.113 101.605 102.206L94.4991 98.1031L93.5841 94.6882L94.4431 91.4823L101.742 87.2685C101.818 87.3139 101.902 87.3496 101.993 87.3738L105.858 88.4096C106.392 88.5526 106.94 88.2358 107.083 87.7021C107.226 87.1684 106.91 86.6199 106.376 86.4769L104.147 85.8797L105.801 84.9246C106.28 84.6483 106.444 84.0365 106.168 83.558C105.891 83.0795 105.279 82.9155 104.801 83.1918L103.014 84.2232L103.668 81.7859C103.811 81.2522 103.494 80.7037 102.96 80.5607C102.426 80.4177 101.878 80.7344 101.735 81.2681L100.699 85.1335C100.66 85.281 100.655 85.4297 100.681 85.5706L93.575 89.6731L89.9859 88.7114C89.9597 88.7044 89.9334 88.6985 89.9071 88.6937L87.5648 86.3513V77.9237C87.6424 77.88 87.7154 77.8251 87.7815 77.7591L90.6111 74.9294C91.0018 74.5387 91.0018 73.9052 90.6111 73.5146C90.2205 73.1239 89.587 73.1239 89.1963 73.5146L87.5648 75.146V73.2359C87.5648 72.6834 87.1169 72.2355 86.5644 72.2355ZM83.8574 98.8415C84.0384 98.8809 84.2107 98.9709 84.3514 99.1117L86.488 101.248L88.6247 99.1117C88.7977 98.9387 89.0183 98.8423 89.2443 98.8225C89.3135 98.7844 89.3884 98.754 89.4681 98.7327L92.3868 97.9506L91.6047 95.0319C91.5739 94.9168 91.5644 94.8011 91.5739 94.6888C91.5643 94.5763 91.5737 94.4602 91.6047 94.3449L92.3867 91.4262L89.468 90.6441C89.3682 90.6174 89.2761 90.5765 89.193 90.5242C88.9851 90.4952 88.7845 90.4007 88.6246 90.2408L86.488 88.1042L84.3514 90.2408C84.2264 90.3657 84.0766 90.4507 83.9179 90.4958C83.8242 90.5618 83.7175 90.6127 83.6003 90.6441L80.6816 91.4262L81.4637 94.3449C81.4946 94.4601 81.504 94.5759 81.4945 94.6883C81.504 94.8007 81.4946 94.9166 81.4637 95.0319L80.6817 97.9505L83.6004 98.7326C83.693 98.7574 83.7791 98.7945 83.8574 98.8415Z" fill="black"/>
<path fill-rule="evenodd" clip-rule="evenodd" d="M86.6746 90.7621C86.5782 90.7621 86.5001 90.8403 86.5001 90.9366V91.2964L86.1889 90.9852C86.1208 90.9171 86.0103 90.9171 85.9421 90.9852C85.874 91.0534 85.874 91.1639 85.9421 91.232L86.4357 91.7256C86.4545 91.7444 86.4766 91.758 86.5001 91.7664V93.1975L86.0597 93.6379L85.4776 93.7938L84.2047 93.0589C84.2048 93.0433 84.2029 93.0275 84.1987 93.0118L84.018 92.3376C83.9931 92.2445 83.8974 92.1892 83.8043 92.2142C83.7112 92.2391 83.656 92.3348 83.6809 92.4279L83.7851 92.8166L83.4966 92.6501C83.4131 92.6019 83.3064 92.6305 83.2582 92.7139C83.21 92.7974 83.2386 92.9041 83.3221 92.9523L83.6337 93.1322L83.2086 93.2461C83.1155 93.271 83.0602 93.3667 83.0852 93.4598C83.1101 93.5529 83.2058 93.6081 83.2989 93.5832L83.9731 93.4025C83.9988 93.3956 84.0217 93.3833 84.0407 93.3672L85.2801 94.0827L85.4397 94.6785L85.2899 95.2376L84.0169 95.9725C84.0035 95.9646 83.9888 95.9584 83.9731 95.9541L83.2989 95.7735C83.2058 95.7486 83.1101 95.8038 83.0852 95.8969C83.0602 95.99 83.1155 96.0857 83.2086 96.1106L83.5973 96.2148L83.3088 96.3813C83.2253 96.4295 83.1967 96.5362 83.2449 96.6197C83.2931 96.7032 83.3998 96.7318 83.4832 96.6836L83.7949 96.5037L83.6809 96.9288C83.656 97.0219 83.7112 97.1176 83.8043 97.1425C83.8974 97.1674 83.9931 97.1122 84.018 97.0191L84.1987 96.3449C84.2056 96.3192 84.2064 96.2933 84.2019 96.2687L85.4413 95.5531L86.0656 95.7204L86.4734 96.1283V97.5982C86.4599 97.6058 86.4471 97.6154 86.4356 97.6269L85.9421 98.1205C85.8739 98.1886 85.8739 98.2991 85.9421 98.3672C86.0102 98.4354 86.1207 98.4354 86.1888 98.3672L86.4734 98.0827V98.4158C86.4734 98.5122 86.5515 98.5903 86.6479 98.5903C86.7443 98.5903 86.8224 98.5122 86.8224 98.4158V98.056L87.1336 98.3672C87.2018 98.4354 87.3123 98.4354 87.3804 98.3672C87.4486 98.2991 87.4486 98.1886 87.3804 98.1205L86.8869 97.6269C86.868 97.6081 86.8459 97.5944 86.8224 97.586V96.1549L87.2525 95.7248C87.2588 95.7238 87.2651 95.7225 87.2714 95.7208L87.861 95.5629L89.134 96.2978C89.1338 96.3133 89.1357 96.3291 89.1399 96.3449L89.3206 97.0191C89.3455 97.1122 89.4412 97.1674 89.5343 97.1425C89.6274 97.1175 89.6826 97.0219 89.6577 96.9288L89.5535 96.5401L89.8421 96.7066C89.9255 96.7548 90.0323 96.7262 90.0804 96.6428C90.1286 96.5593 90.1 96.4526 90.0166 96.4044L89.705 96.2245L90.1301 96.1106C90.2232 96.0856 90.2784 95.99 90.2535 95.8969C90.2285 95.8038 90.1328 95.7485 90.0397 95.7735L89.3655 95.9541C89.3398 95.961 89.317 95.9733 89.2979 95.9895L88.0586 95.274L87.899 94.6782L88.0488 94.1191L89.3218 93.3842C89.3352 93.3921 89.3498 93.3983 89.3656 93.4026L90.0398 93.5832C90.1329 93.6081 90.2286 93.5529 90.2535 93.4598C90.2784 93.3667 90.2232 93.271 90.1301 93.2461L89.7414 93.142L90.0299 92.9754C90.1134 92.9272 90.142 92.8205 90.0938 92.737C90.0456 92.6535 89.9389 92.6249 89.8554 92.6731L89.5438 92.8531L89.6577 92.4279C89.6827 92.3348 89.6274 92.2392 89.5343 92.2142C89.4412 92.1893 89.3456 92.2445 89.3206 92.3376L89.14 93.0118C89.1331 93.0375 89.1323 93.0634 89.1368 93.088L87.8973 93.8036L87.2713 93.6359C87.2667 93.6346 87.2621 93.6336 87.2575 93.6327L86.8491 93.2243V91.7543C86.8626 91.7466 86.8753 91.7371 86.8868 91.7256L87.3804 91.232C87.4485 91.1639 87.4485 91.0534 87.3804 90.9852C87.3123 90.9171 87.2018 90.9171 87.1336 90.9852L86.8491 91.2698V90.9366C86.8491 90.8403 86.771 90.7621 86.6746 90.7621ZM86.2024 95.4027C86.234 95.4096 86.264 95.4253 86.2886 95.4499L86.6612 95.8225L87.0339 95.4499C87.0641 95.4197 87.1026 95.4029 87.142 95.3994C87.1541 95.3928 87.1672 95.3875 87.1811 95.3837L87.6902 95.2473L87.5538 94.7383C87.5484 94.7183 87.5468 94.6982 87.5484 94.6787C87.5466 94.659 87.5483 94.6387 87.5537 94.6184L87.6901 94.1094L87.181 93.973C87.1636 93.9683 87.1475 93.9612 87.133 93.952C87.0968 93.947 87.0618 93.9305 87.0338 93.9026L86.6612 93.53L86.2886 93.9026C86.2668 93.9244 86.2407 93.9392 86.213 93.9471C86.1966 93.9586 86.178 93.9675 86.1576 93.9729L85.6485 94.1094L85.7849 94.6184C85.7903 94.6384 85.7919 94.6585 85.7903 94.678C85.792 94.6977 85.7904 94.7181 85.785 94.7383L85.6486 95.2474L86.1576 95.3838C86.1737 95.3881 86.1888 95.3945 86.2024 95.4027Z" fill="black"/>
<path fill-rule="evenodd" clip-rule="evenodd" d="M94.0153 78.178C93.919 78.178 93.8409 78.2561 93.8409 78.3525V78.7123L93.5296 78.4011C93.4615 78.3329 93.351 78.3329 93.2829 78.4011C93.2147 78.4692 93.2147 78.5797 93.2829 78.6479L93.7764 79.1414C93.7953 79.1603 93.8174 79.1739 93.8409 79.1823V80.6134L93.4005 81.0538L92.8185 81.2097L91.5454 80.4747C91.5455 80.4592 91.5436 80.4434 91.5394 80.4276L91.3588 79.7534C91.3338 79.6603 91.2381 79.6051 91.145 79.63C91.052 79.655 90.9967 79.7507 91.0217 79.8438L91.1258 80.2324L90.8373 80.0659C90.7539 80.0177 90.6472 80.0463 90.599 80.1298C90.5508 80.2132 90.5794 80.32 90.6628 80.3681L90.9744 80.548L90.5493 80.6619C90.4562 80.6869 90.401 80.7826 90.4259 80.8757C90.4509 80.9687 90.5466 81.024 90.6396 80.999L91.3138 80.8184C91.3396 80.8115 91.3624 80.7992 91.3815 80.783L92.6209 81.4986L92.7805 82.0942L92.6306 82.6534L91.3576 83.3884C91.3442 83.3805 91.3296 83.3742 91.3138 83.37L90.6396 83.1894C90.5465 83.1644 90.4509 83.2197 90.4259 83.3128C90.401 83.4058 90.4562 83.5015 90.5493 83.5265L90.938 83.6306L90.6495 83.7972C90.5661 83.8454 90.5375 83.9521 90.5856 84.0356C90.6338 84.119 90.7405 84.1476 90.824 84.0994L91.1356 83.9196L91.0217 84.3447C90.9967 84.4378 91.052 84.5334 91.1451 84.5584C91.2382 84.5833 91.3338 84.5281 91.3588 84.435L91.5394 83.7608C91.5463 83.7351 91.5471 83.7091 91.5426 83.6845L92.782 82.969L93.4063 83.1362L93.8142 83.5441L93.8142 85.0141C93.8006 85.0217 93.7879 85.0313 93.7764 85.0428L93.2828 85.5363C93.2147 85.6045 93.2147 85.715 93.2828 85.7831C93.351 85.8512 93.4615 85.8512 93.5296 85.7831L93.8142 85.4985V85.8317C93.8142 85.9281 93.8923 86.0062 93.9887 86.0062C94.0851 86.0062 94.1632 85.9281 94.1632 85.8317V85.4719L94.4744 85.7831C94.5425 85.8512 94.653 85.8512 94.7212 85.7831C94.7893 85.7149 94.7893 85.6045 94.7212 85.5363L94.2276 85.0428C94.2088 85.0239 94.1867 85.0103 94.1632 85.0019L94.1632 83.5707L94.5932 83.1407C94.5995 83.1397 94.6058 83.1384 94.6121 83.1367L95.2017 82.9787L96.4747 83.7137C96.4746 83.7292 96.4765 83.745 96.4807 83.7608L96.6614 84.435C96.6863 84.5281 96.782 84.5833 96.8751 84.5584C96.9682 84.5334 97.0234 84.4377 96.9985 84.3446L96.8943 83.9559L97.1828 84.1225C97.2663 84.1707 97.373 84.1421 97.4212 84.0587C97.4694 83.9752 97.4408 83.8685 97.3573 83.8203L97.0457 83.6404L97.4708 83.5265C97.5639 83.5015 97.6192 83.4058 97.5942 83.3127C97.5693 83.2197 97.4736 83.1644 97.3805 83.1894L96.7063 83.37C96.6806 83.3769 96.6577 83.3892 96.6387 83.4054L95.3993 82.6898L95.2397 82.0943L95.3896 81.535L96.6626 80.8001C96.6759 80.808 96.6906 80.8142 96.7063 80.8184L97.3805 80.9991C97.4736 81.024 97.5693 80.9688 97.5942 80.8757C97.6192 80.7826 97.5639 80.6869 97.4709 80.662L97.0821 80.5578L97.3707 80.3912C97.4541 80.343 97.4827 80.2363 97.4345 80.1529C97.3863 80.0694 97.2796 80.0408 97.1962 80.089L96.8845 80.2689L96.9984 79.8438C97.0234 79.7507 96.9681 79.655 96.875 79.6301C96.7819 79.6051 96.6863 79.6604 96.6613 79.7535L96.4807 80.4277C96.4738 80.4534 96.473 80.4793 96.4775 80.5039L95.2381 81.2195L94.6122 81.0517C94.6076 81.0505 94.603 81.0495 94.5984 81.0486L94.1899 80.6401V79.1701C94.2034 79.1625 94.2161 79.1529 94.2276 79.1414L94.7211 78.6479C94.7893 78.5797 94.7893 78.4692 94.7211 78.4011C94.653 78.3329 94.5425 78.3329 94.4744 78.4011L94.1898 78.6856V78.3525C94.1898 78.2561 94.1117 78.178 94.0153 78.178ZM93.5432 82.8186C93.5747 82.8255 93.6047 82.8412 93.6293 82.8657L94.002 83.2384L94.3746 82.8657C94.4048 82.8355 94.4433 82.8187 94.4828 82.8153C94.4948 82.8086 94.5079 82.8033 94.5218 82.7996L95.0309 82.6632L94.8945 82.1541C94.8891 82.1339 94.8874 82.1137 94.8891 82.094C94.8875 82.0745 94.8891 82.0543 94.8945 82.0343L95.0309 81.5252L94.5218 81.3888C94.5044 81.3842 94.4883 81.377 94.4738 81.3679C94.4376 81.3628 94.4026 81.3463 94.3747 81.3185L94.002 80.9458L93.6294 81.3184C93.6076 81.3402 93.5815 81.355 93.5539 81.3629C93.5375 81.3744 93.5189 81.3833 93.4984 81.3888L92.9893 81.5252L93.1257 82.0343C93.1311 82.0544 93.1328 82.0747 93.1311 82.0943C93.1327 82.1139 93.1311 82.1341 93.1257 82.1541L92.9893 82.6632L93.4983 82.7996C93.5145 82.8039 93.5295 82.8104 93.5432 82.8186Z" fill="black"/>
<path fill-rule="evenodd" clip-rule="evenodd" d="M80.033 78.178C79.9366 78.178 79.8585 78.2561 79.8585 78.3525V78.7123L79.5473 78.4011C79.4791 78.3329 79.3687 78.3329 79.3005 78.4011C79.2324 78.4692 79.2324 78.5797 79.3005 78.6479L79.7941 79.1414C79.8129 79.1602 79.8349 79.1739 79.8584 79.1823V80.6134L79.418 81.0538L78.8361 81.2097L77.563 80.4747C77.5632 80.4592 77.5612 80.4434 77.557 80.4276L77.3764 79.7534C77.3514 79.6603 77.2557 79.6051 77.1627 79.63C77.0696 79.655 77.0143 79.7507 77.0393 79.8438L77.1434 80.2324L76.8549 80.0659C76.7715 80.0177 76.6648 80.0463 76.6166 80.1298C76.5684 80.2132 76.597 80.32 76.6805 80.3681L76.992 80.548L76.5669 80.6619C76.4738 80.6869 76.4186 80.7826 76.4435 80.8757C76.4685 80.9687 76.5642 81.024 76.6572 80.999L77.3315 80.8184C77.3572 80.8115 77.38 80.7992 77.3991 80.783L78.6385 81.4986L78.7981 82.0941L78.6482 82.6534L77.3752 83.3884C77.3619 83.3805 77.3472 83.3742 77.3315 83.37L76.6573 83.1894C76.5642 83.1644 76.4685 83.2197 76.4435 83.3127C76.4186 83.4058 76.4738 83.5015 76.5669 83.5265L76.9557 83.6306L76.6671 83.7972C76.5837 83.8454 76.5551 83.9521 76.6032 84.0356C76.6514 84.119 76.7582 84.1476 76.8416 84.0994L77.1532 83.9195L77.0393 84.3447C77.0144 84.4377 77.0696 84.5334 77.1627 84.5584C77.2558 84.5833 77.3515 84.5281 77.3764 84.435L77.5571 83.7608C77.564 83.735 77.5647 83.7091 77.5603 83.6845L78.7997 82.969L79.4239 83.1362L79.8318 83.5441L79.8318 85.014C79.8183 85.0217 79.8055 85.0312 79.794 85.0428L79.3005 85.5363C79.2323 85.6045 79.2323 85.715 79.3005 85.7831C79.3686 85.8512 79.4791 85.8512 79.5472 85.7831L79.8318 85.4985V85.8317C79.8318 85.9281 79.9099 86.0062 80.0063 86.0062C80.1027 86.0062 80.1808 85.9281 80.1808 85.8317V85.4719L80.492 85.7831C80.5602 85.8512 80.6706 85.8512 80.7388 85.7831C80.8069 85.7149 80.8069 85.6045 80.7388 85.5363L80.2452 85.0428C80.2264 85.0239 80.2043 85.0103 80.1808 85.0019L80.1808 83.5707L80.6109 83.1407C80.6172 83.1397 80.6235 83.1384 80.6298 83.1367L81.2194 82.9787L82.4923 83.7137C82.4922 83.7292 82.4941 83.745 82.4983 83.7608L82.679 84.435C82.7039 84.5281 82.7996 84.5833 82.8927 84.5584C82.9858 84.5334 83.041 84.4377 83.0161 84.3446L82.9119 83.9559L83.2004 84.1225C83.2839 84.1707 83.3906 84.1421 83.4388 84.0587C83.487 83.9752 83.4584 83.8685 83.3749 83.8203L83.0633 83.6404L83.4885 83.5265C83.5815 83.5015 83.6368 83.4058 83.6118 83.3127C83.5869 83.2197 83.4912 83.1644 83.3981 83.1894L82.7239 83.37C82.6982 83.3769 82.6754 83.3892 82.6563 83.4054L81.4169 82.6898L81.2573 82.0941L81.4071 81.535L82.6801 80.8C82.6935 80.8079 82.7082 80.8142 82.724 80.8184L83.3982 80.9991C83.4912 81.024 83.5869 80.9688 83.6119 80.8757C83.6368 80.7826 83.5816 80.6869 83.4885 80.662L83.0998 80.5578L83.3883 80.3912C83.4718 80.343 83.5003 80.2363 83.4522 80.1529C83.404 80.0694 83.2973 80.0408 83.2138 80.089L82.9022 80.2689L83.0161 79.8438C83.041 79.7507 82.9858 79.655 82.8927 79.6301C82.7996 79.6051 82.7039 79.6604 82.679 79.7535L82.4983 80.4277C82.4914 80.4534 82.4907 80.4793 82.4951 80.5039L81.2557 81.2195L80.6297 81.0517C80.6251 81.0505 80.6205 81.0495 80.616 81.0486L80.2074 80.6401V79.1701C80.221 79.1625 80.2337 79.1529 80.2452 79.1414L80.7388 78.6479C80.8069 78.5797 80.8069 78.4692 80.7388 78.4011C80.6706 78.3329 80.5602 78.3329 80.492 78.4011L80.2075 78.6856V78.3525C80.2075 78.2561 80.1293 78.178 80.033 78.178ZM79.5608 82.8186C79.5924 82.8255 79.6224 82.8412 79.6469 82.8657L80.0196 83.2384L80.3923 82.8657C80.4225 82.8355 80.461 82.8187 80.5004 82.8153C80.5125 82.8086 80.5255 82.8033 80.5394 82.7996L81.0485 82.6632L80.9121 82.1541C80.9068 82.1341 80.9051 82.1141 80.9067 82.0946C80.905 82.0749 80.9066 82.0545 80.912 82.0343L81.0484 81.5252L80.5394 81.3888C80.5219 81.3842 80.5059 81.377 80.4914 81.3679C80.4551 81.3628 80.4201 81.3463 80.3922 81.3185L80.0196 80.9458L79.6469 81.3184C79.6252 81.3402 79.5992 81.355 79.5716 81.3628C79.5552 81.3744 79.5365 81.3833 79.516 81.3888L79.007 81.5252L79.1434 82.0343C79.1488 82.0545 79.1504 82.0748 79.1487 82.0945C79.1503 82.114 79.1487 82.1341 79.1433 82.1541L79.0069 82.6632L79.516 82.7996C79.5321 82.8039 79.5471 82.8104 79.5608 82.8186Z" fill="black"/>
<path fill-rule="evenodd" clip-rule="evenodd" d="M72.6923 90.7621C72.5959 90.7621 72.5178 90.8403 72.5178 90.9366V91.2965L72.2065 90.9852C72.1384 90.9171 72.0279 90.9171 71.9598 90.9852C71.8916 91.0534 71.8916 91.1639 71.9598 91.232L72.4533 91.7256C72.4722 91.7444 72.4942 91.758 72.5177 91.7664V93.1975L72.0774 93.6379L71.4953 93.7938L70.2223 93.0589C70.2224 93.0433 70.2205 93.0275 70.2163 93.0118L70.0356 92.3376C70.0107 92.2445 69.915 92.1892 69.8219 92.2142C69.7288 92.2391 69.6736 92.3348 69.6985 92.4279L69.8027 92.8166L69.5142 92.6501C69.4307 92.6019 69.324 92.6305 69.2758 92.7139C69.2277 92.7974 69.2562 92.9041 69.3397 92.9523L69.6513 93.1322L69.2262 93.2461C69.1331 93.271 69.0778 93.3667 69.1028 93.4598C69.1277 93.5529 69.2234 93.6081 69.3165 93.5832L69.9907 93.4025C70.0164 93.3956 70.0393 93.3834 70.0583 93.3672L71.2977 94.0827L71.4573 94.6785L71.3075 95.2376L70.0345 95.9725C70.0211 95.9646 70.0065 95.9584 69.9907 95.9542L69.3165 95.7735C69.2234 95.7486 69.1277 95.8038 69.1028 95.8969C69.0779 95.99 69.1331 96.0857 69.2262 96.1106L69.6149 96.2148L69.3264 96.3813C69.2429 96.4295 69.2143 96.5363 69.2625 96.6197C69.3107 96.7032 69.4174 96.7318 69.5009 96.6836L69.8125 96.5037L69.6986 96.9288C69.6736 97.0219 69.7289 97.1176 69.8219 97.1425C69.915 97.1675 70.0107 97.1122 70.0357 97.0191L70.2163 96.3449C70.2232 96.3192 70.224 96.2933 70.2195 96.2687L71.4589 95.5531L72.0832 95.7204L72.4911 96.1283V97.5982C72.4775 97.6058 72.4648 97.6154 72.4533 97.6269L71.9597 98.1205C71.8916 98.1886 71.8916 98.2991 71.9597 98.3672C72.0279 98.4354 72.1383 98.4354 72.2065 98.3672L72.4911 98.0827V98.4158C72.4911 98.5122 72.5692 98.5903 72.6656 98.5903C72.7619 98.5903 72.8401 98.5122 72.8401 98.4158V98.056L73.1513 98.3672C73.2194 98.4354 73.3299 98.4354 73.398 98.3672C73.4662 98.2991 73.4662 98.1886 73.398 98.1205L72.9045 97.6269C72.8857 97.6081 72.8636 97.5944 72.8401 97.586V96.1549L73.2702 95.7248C73.2764 95.7238 73.2827 95.7225 73.289 95.7208L73.8786 95.5629L75.1516 96.2978C75.1514 96.3134 75.1533 96.3292 75.1576 96.3449L75.3382 97.0191C75.3632 97.1122 75.4588 97.1674 75.5519 97.1425C75.645 97.1175 75.7003 97.0219 75.6753 96.9288L75.5712 96.5401L75.8597 96.7066C75.9432 96.7548 76.0499 96.7262 76.0981 96.6428C76.1463 96.5593 76.1177 96.4526 76.0342 96.4044L75.7226 96.2245L76.1477 96.1106C76.2408 96.0856 76.296 95.99 76.2711 95.8969C76.2461 95.8038 76.1505 95.7485 76.0574 95.7735L75.3832 95.9541C75.3574 95.961 75.3346 95.9733 75.3155 95.9895L74.0762 95.274L73.9166 94.6784L74.0665 94.1191L75.3394 93.3842C75.3528 93.3921 75.3675 93.3983 75.3832 93.4026L76.0574 93.5832C76.1505 93.6081 76.2462 93.5529 76.2712 93.4598C76.2961 93.3667 76.2409 93.271 76.1478 93.2461L75.759 93.1419L76.0476 92.9754C76.131 92.9272 76.1596 92.8205 76.1114 92.737C76.0632 92.6535 75.9565 92.6249 75.8731 92.6731L75.5614 92.8531L75.6753 92.4279C75.7003 92.3348 75.645 92.2392 75.5519 92.2142C75.4589 92.1893 75.3632 92.2445 75.3382 92.3376L75.1576 93.0118C75.1507 93.0375 75.1499 93.0634 75.1544 93.088L73.915 93.8036L73.289 93.6359C73.2844 93.6346 73.2798 93.6336 73.2752 93.6327L72.8667 93.2243V91.7543C72.8803 91.7467 72.893 91.7371 72.9045 91.7256L73.3981 91.232C73.4662 91.1639 73.4662 91.0534 73.3981 90.9852C73.3299 90.9171 73.2194 90.9171 73.1513 90.9852L72.8668 91.2698V90.9366C72.8668 90.8403 72.7886 90.7621 72.6923 90.7621ZM72.2201 95.4027C72.2516 95.4096 72.2817 95.4253 72.3062 95.4499L72.6789 95.8225L73.0516 95.4499C73.0817 95.4197 73.1202 95.4029 73.1596 95.3994C73.1717 95.3928 73.1847 95.3875 73.1987 95.3837L73.7077 95.2473L73.5713 94.7383C73.5659 94.7181 73.5643 94.6978 73.566 94.6782C73.5643 94.6586 73.566 94.6385 73.5714 94.6184L73.7078 94.1094L73.1987 93.973C73.1813 93.9683 73.1652 93.9612 73.1507 93.952C73.1144 93.947 73.0794 93.9305 73.0515 93.9026L72.6788 93.53L72.3062 93.9026C72.2844 93.9244 72.2583 93.9392 72.2306 93.9471C72.2142 93.9586 72.1956 93.9675 72.1752 93.9729L71.6661 94.1094L71.8025 94.6184C71.8079 94.6384 71.8095 94.6585 71.8079 94.6779C71.8097 94.6977 71.808 94.718 71.8026 94.7383L71.6662 95.2474L72.1753 95.3838C72.1914 95.3881 72.2064 95.3945 72.2201 95.4027Z" fill="black"/>
<path fill-rule="evenodd" clip-rule="evenodd" d="M101.356 90.7621C101.26 90.7621 101.182 90.8403 101.182 90.9366V91.2964L100.87 90.9852C100.802 90.9171 100.692 90.9171 100.624 90.9852C100.555 91.0534 100.555 91.1639 100.624 91.232L101.117 91.7256C101.136 91.7444 101.158 91.758 101.182 91.7665V93.1975L100.741 93.6379L100.159 93.7938L98.8862 93.0589C98.8863 93.0433 98.8844 93.0275 98.8802 93.0118L98.6995 92.3376C98.6746 92.2445 98.5789 92.1892 98.4858 92.2142C98.3927 92.2391 98.3375 92.3348 98.3624 92.4279L98.4666 92.8166L98.1781 92.6501C98.0946 92.6019 97.9879 92.6305 97.9397 92.7139C97.8915 92.7974 97.9201 92.9041 98.0036 92.9523L98.3152 93.1322L97.8901 93.2461C97.797 93.271 97.7417 93.3667 97.7667 93.4598C97.7916 93.5529 97.8873 93.6081 97.9804 93.5832L98.6546 93.4025C98.6803 93.3956 98.7032 93.3833 98.7222 93.3672L99.9616 94.0827L100.121 94.6785L99.9714 95.2375L98.6984 95.9725C98.685 95.9646 98.6703 95.9584 98.6546 95.9542L97.9804 95.7735C97.8873 95.7486 97.7916 95.8038 97.7667 95.8969C97.7417 95.99 97.797 96.0857 97.8901 96.1106L98.2788 96.2148L97.9903 96.3813C97.9068 96.4295 97.8782 96.5362 97.9264 96.6197C97.9746 96.7032 98.0813 96.7318 98.1648 96.6836L98.4763 96.5037L98.3624 96.9288C98.3375 97.0219 98.3927 97.1176 98.4858 97.1425C98.5789 97.1675 98.6746 97.1122 98.6995 97.0191L98.8802 96.3449C98.8871 96.3192 98.8878 96.2933 98.8834 96.2687L100.123 95.5531L100.747 95.7204L101.155 96.1283L101.155 97.5982C101.141 97.6058 101.129 97.6154 101.117 97.6269L100.624 98.1205C100.555 98.1886 100.555 98.2991 100.624 98.3672C100.692 98.4354 100.802 98.4354 100.87 98.3672L101.155 98.0827V98.4158C101.155 98.5122 101.233 98.5903 101.329 98.5903C101.426 98.5903 101.504 98.5122 101.504 98.4158V98.056L101.815 98.3672C101.883 98.4354 101.994 98.4354 102.062 98.3672C102.13 98.2991 102.13 98.1886 102.062 98.1205L101.568 97.6269C101.55 97.6081 101.527 97.5944 101.504 97.586L101.504 96.1549L101.934 95.7248C101.94 95.7238 101.947 95.7225 101.953 95.7208L102.542 95.5629L103.815 96.2978C103.815 96.3134 103.817 96.3292 103.821 96.3449L104.002 97.0191C104.027 97.1122 104.123 97.1674 104.216 97.1425C104.309 97.1175 104.364 97.0219 104.339 96.9288L104.235 96.5401L104.524 96.7067C104.607 96.7548 104.714 96.7262 104.762 96.6428C104.81 96.5593 104.782 96.4526 104.698 96.4044L104.386 96.2245L104.812 96.1106C104.905 96.0857 104.96 95.99 104.935 95.8969C104.91 95.8038 104.814 95.7486 104.721 95.7735L104.047 95.9541C104.021 95.961 103.998 95.9734 103.979 95.9895L102.74 95.274L102.58 94.6784L102.73 94.1191L104.003 93.3842C104.017 93.3921 104.031 93.3983 104.047 93.4026L104.721 93.5832C104.814 93.6081 104.91 93.5529 104.935 93.4598C104.96 93.3667 104.905 93.271 104.812 93.2461L104.423 93.1419L104.711 92.9754C104.795 92.9272 104.823 92.8205 104.775 92.737C104.727 92.6535 104.62 92.6249 104.537 92.6731L104.225 92.8531L104.339 92.4279C104.364 92.3348 104.309 92.2392 104.216 92.2142C104.123 92.1893 104.027 92.2445 104.002 92.3376L103.821 93.0118C103.815 93.0375 103.814 93.0634 103.818 93.088L102.579 93.8036L101.953 93.6358C101.948 93.6346 101.944 93.6336 101.939 93.6327L101.531 93.2243V91.7543C101.544 91.7466 101.557 91.7371 101.568 91.7256L102.062 91.232C102.13 91.1639 102.13 91.0534 102.062 90.9852C101.994 90.9171 101.883 90.9171 101.815 90.9852L101.531 91.2698V90.9366C101.531 90.8403 101.452 90.7621 101.356 90.7621ZM100.884 95.4028C100.916 95.4096 100.946 95.4253 100.97 95.4499L101.343 95.8225L101.715 95.4499C101.746 95.4197 101.784 95.4029 101.823 95.3994C101.836 95.3928 101.849 95.3875 101.863 95.3837L102.372 95.2473L102.235 94.7383C102.23 94.7181 102.228 94.6978 102.23 94.6781C102.228 94.6586 102.23 94.6385 102.235 94.6184L102.372 94.1094L101.863 93.9729C101.845 93.9683 101.829 93.9612 101.815 93.952C101.778 93.947 101.743 93.9305 101.715 93.9026L101.343 93.5299L100.97 93.9026C100.948 93.9244 100.922 93.9392 100.895 93.9471C100.878 93.9586 100.86 93.9675 100.839 93.9729L100.33 94.1094L100.466 94.6184C100.472 94.6384 100.473 94.6585 100.472 94.678C100.474 94.6977 100.472 94.7181 100.467 94.7383L100.33 95.2474L100.839 95.3838C100.855 95.3881 100.87 95.3945 100.884 95.4028Z" fill="black"/>
<path fill-rule="evenodd" clip-rule="evenodd" d="M93.3162 102.298C93.2199 102.298 93.1417 102.376 93.1417 102.472V102.832L92.8305 102.521C92.7624 102.453 92.6519 102.453 92.5837 102.521C92.5156 102.589 92.5156 102.699 92.5837 102.767L93.0773 103.261C93.0961 103.28 93.1182 103.293 93.1417 103.302V104.733L92.7014 105.173L92.1192 105.329L90.8463 104.594C90.8464 104.579 90.8445 104.563 90.8403 104.547L90.6596 103.873C90.6347 103.78 90.539 103.725 90.4459 103.75C90.3528 103.775 90.2976 103.87 90.3225 103.963L90.4267 104.352L90.1382 104.186C90.0547 104.137 89.948 104.166 89.8998 104.249C89.8516 104.333 89.8802 104.44 89.9637 104.488L90.2753 104.668L89.8502 104.782C89.7571 104.807 89.7019 104.902 89.7268 104.995C89.7517 105.088 89.8474 105.144 89.9405 105.119L90.6147 104.938C90.6404 104.931 90.6633 104.919 90.6823 104.903L91.9217 105.618L92.0813 106.214L91.9315 106.773L90.6585 107.508C90.6451 107.5 90.6305 107.494 90.6147 107.49L89.9405 107.309C89.8474 107.284 89.7517 107.339 89.7268 107.432C89.7019 107.525 89.7571 107.621 89.8502 107.646L90.2389 107.75L89.9504 107.917C89.8669 107.965 89.8383 108.072 89.8865 108.155C89.9347 108.239 90.0414 108.267 90.1249 108.219L90.4364 108.039L90.3225 108.464C90.2976 108.557 90.3528 108.653 90.4459 108.678C90.539 108.703 90.6347 108.648 90.6596 108.555L90.8403 107.88C90.8472 107.855 90.848 107.829 90.8435 107.804L92.0829 107.089L92.7072 107.256L93.1151 107.664V109.134C93.1015 109.141 93.0888 109.151 93.0772 109.162L92.5837 109.656C92.5155 109.724 92.5155 109.835 92.5837 109.903C92.6518 109.971 92.7623 109.971 92.8305 109.903L93.115 109.618V109.951C93.115 110.048 93.1932 110.126 93.2895 110.126C93.3859 110.126 93.464 110.048 93.464 109.951V109.591L93.7752 109.903C93.8434 109.971 93.9539 109.971 94.022 109.903C94.0901 109.835 94.0902 109.724 94.022 109.656L93.5285 109.162C93.5096 109.144 93.4876 109.13 93.4641 109.121V107.69L93.8941 107.26C93.9004 107.259 93.9067 107.258 93.913 107.256L94.5026 107.098L95.7756 107.833C95.7754 107.849 95.7773 107.865 95.7816 107.88L95.9622 108.555C95.9871 108.648 96.0828 108.703 96.1759 108.678C96.269 108.653 96.3242 108.557 96.2993 108.464L96.1951 108.076L96.4837 108.242C96.5672 108.29 96.6739 108.262 96.7221 108.178C96.7702 108.095 96.7417 107.988 96.6582 107.94L96.3466 107.76L96.7717 107.646C96.8648 107.621 96.92 107.525 96.8951 107.432C96.8701 107.339 96.7745 107.284 96.6814 107.309L96.0072 107.49C95.9814 107.497 95.9586 107.509 95.9395 107.525L94.7001 106.809L94.5406 106.214L94.6904 105.655L95.9634 104.92C95.9768 104.928 95.9914 104.934 96.0072 104.938L96.6814 105.119C96.7745 105.144 96.8702 105.088 96.8951 104.995C96.9201 104.902 96.8648 104.807 96.7717 104.782L96.383 104.677L96.6715 104.511C96.755 104.463 96.7836 104.356 96.7354 104.272C96.6872 104.189 96.5805 104.16 96.497 104.209L96.1854 104.389L96.2993 103.963C96.3242 103.87 96.269 103.775 96.1759 103.75C96.0828 103.725 95.9871 103.78 95.9622 103.873L95.7815 104.547C95.7747 104.573 95.7739 104.599 95.7783 104.623L94.539 105.339L93.913 105.171C93.9084 105.17 93.9038 105.169 93.8992 105.168L93.4907 104.76V103.29C93.5042 103.282 93.517 103.273 93.5285 103.261L94.022 102.767C94.0902 102.699 94.0902 102.589 94.022 102.521C93.9539 102.453 93.8434 102.453 93.7753 102.521L93.4907 102.805V102.472C93.4907 102.376 93.4126 102.298 93.3162 102.298ZM92.8441 106.938C92.8756 106.945 92.9057 106.961 92.9302 106.985L93.3029 107.358L93.6755 106.985C93.7057 106.955 93.7442 106.938 93.7836 106.935C93.7957 106.928 93.8088 106.923 93.8226 106.919L94.3317 106.783L94.1953 106.274C94.1899 106.254 94.1883 106.233 94.1899 106.214C94.1883 106.194 94.19 106.174 94.1953 106.154L94.3317 105.645L93.8227 105.508C93.8053 105.504 93.7892 105.497 93.7747 105.488C93.7384 105.482 93.7034 105.466 93.6755 105.438L93.3029 105.065L92.9302 105.438C92.9084 105.46 92.8822 105.475 92.8545 105.483C92.8382 105.494 92.8196 105.503 92.7992 105.508L92.2901 105.645L92.4265 106.154C92.4319 106.174 92.4335 106.194 92.4319 106.213C92.4337 106.233 92.4321 106.253 92.4266 106.274L92.2902 106.783L92.7992 106.919C92.8154 106.924 92.8304 106.93 92.8441 106.938Z" fill="black"/>
<path fill-rule="evenodd" clip-rule="evenodd" d="M79.3338 102.298C79.2375 102.298 79.1593 102.376 79.1593 102.472V102.832L78.8481 102.521C78.78 102.453 78.6695 102.453 78.6014 102.521C78.5332 102.589 78.5332 102.699 78.6014 102.767L79.0949 103.261C79.1138 103.28 79.1358 103.293 79.1594 103.302V104.733L78.7191 105.173L78.1369 105.329L76.8639 104.594C76.8641 104.579 76.8621 104.563 76.8579 104.547L76.6773 103.873C76.6523 103.78 76.5567 103.725 76.4636 103.75C76.3705 103.775 76.3152 103.87 76.3402 103.963L76.4443 104.352L76.1558 104.186C76.0724 104.137 75.9657 104.166 75.9175 104.249C75.8693 104.333 75.8979 104.44 75.9813 104.488L76.2929 104.668L75.8678 104.782C75.7747 104.807 75.7195 104.902 75.7444 104.995C75.7694 105.088 75.865 105.144 75.9581 105.119L76.6323 104.938C76.6581 104.931 76.6809 104.919 76.7 104.903L77.9394 105.618L78.0989 106.214L77.9491 106.773L76.6761 107.508C76.6627 107.5 76.6481 107.494 76.6323 107.49L75.9581 107.309C75.8651 107.284 75.7694 107.339 75.7444 107.432C75.7195 107.525 75.7747 107.621 75.8678 107.646L76.2565 107.75L75.968 107.917C75.8845 107.965 75.856 108.072 75.9041 108.155C75.9523 108.239 76.059 108.267 76.1425 108.219L76.4541 108.039L76.3402 108.464C76.3153 108.557 76.3705 108.653 76.4636 108.678C76.5567 108.703 76.6524 108.648 76.6773 108.555L76.858 107.88C76.8649 107.855 76.8656 107.829 76.8612 107.804L78.1005 107.089L78.7249 107.256L79.1327 107.664L79.1327 109.134C79.1192 109.141 79.1064 109.151 79.0948 109.162L78.6013 109.656C78.5332 109.724 78.5332 109.835 78.6013 109.903C78.6694 109.971 78.7799 109.971 78.8481 109.903L79.1326 109.618V109.951C79.1326 110.048 79.2108 110.126 79.3071 110.126C79.4035 110.126 79.4816 110.048 79.4816 109.951V109.591L79.7929 109.903C79.861 109.971 79.9715 109.971 80.0396 109.903C80.1078 109.835 80.1078 109.724 80.0396 109.656L79.5461 109.162C79.5273 109.144 79.5052 109.13 79.4817 109.121L79.4817 107.69L79.9118 107.26C79.918 107.259 79.9243 107.258 79.9306 107.256L80.5202 107.098L81.7932 107.833C81.7931 107.849 81.795 107.865 81.7992 107.88L81.9798 108.555C82.0048 108.648 82.1005 108.703 82.1936 108.678C82.2866 108.653 82.3419 108.557 82.3169 108.464L82.2128 108.076L82.5013 108.242C82.5848 108.29 82.6915 108.262 82.7397 108.178C82.7879 108.095 82.7593 107.988 82.6758 107.94L82.3642 107.76L82.7893 107.646C82.8824 107.621 82.9377 107.525 82.9127 107.432C82.8878 107.339 82.7921 107.284 82.699 107.309L82.0248 107.49C81.9991 107.497 81.9762 107.509 81.9572 107.525L80.7178 106.809L80.5582 106.214L80.7081 105.655L81.981 104.92C81.9944 104.928 82.0091 104.934 82.0248 104.938L82.699 105.119C82.7921 105.144 82.8878 105.088 82.9128 104.995C82.9377 104.902 82.8825 104.807 82.7894 104.782L82.4006 104.677L82.6892 104.511C82.7726 104.463 82.8012 104.356 82.7531 104.272C82.7049 104.189 82.5981 104.16 82.5147 104.209L82.203 104.389L82.317 103.963C82.3419 103.87 82.2867 103.775 82.1936 103.75C82.1005 103.725 82.0048 103.78 81.9799 103.873L81.7992 104.547C81.7923 104.573 81.7915 104.599 81.796 104.623L80.5566 105.339L79.9306 105.171C79.926 105.17 79.9215 105.169 79.9169 105.168L79.5084 104.76V103.29C79.5219 103.282 79.5346 103.273 79.5461 103.261L80.0397 102.767C80.1078 102.699 80.1078 102.589 80.0397 102.521C79.9715 102.453 79.861 102.453 79.7929 102.521L79.5083 102.805V102.472C79.5083 102.376 79.4302 102.298 79.3338 102.298ZM78.8616 106.938C78.8932 106.945 78.9233 106.961 78.9478 106.985L79.3205 107.358L79.6932 106.985C79.7234 106.955 79.7618 106.938 79.8013 106.935C79.8133 106.928 79.8264 106.923 79.8403 106.919L80.3493 106.783L80.2129 106.274C80.2075 106.254 80.2059 106.233 80.2076 106.214C80.206 106.194 80.2076 106.174 80.213 106.154L80.3494 105.645L79.8403 105.508C79.8229 105.504 79.8068 105.497 79.7923 105.487C79.756 105.482 79.7211 105.466 79.6932 105.438L79.3205 105.065L78.9479 105.438C78.926 105.46 78.8999 105.475 78.8722 105.483C78.8559 105.494 78.8373 105.503 78.8169 105.508L78.3078 105.645L78.4442 106.154C78.4496 106.174 78.4513 106.194 78.4495 106.214C78.4512 106.234 78.4495 106.254 78.4442 106.274L78.3077 106.783L78.8168 106.919C78.8329 106.924 78.8479 106.93 78.8616 106.938Z" fill="black"/>
</svg>
