<svg width="163" height="176" viewBox="0 0 163 176" fill="none" xmlns="http://www.w3.org/2000/svg">
<line y1="-3.5" x2="20.485" y2="-3.5" transform="matrix(-0.303076 0.952966 -0.879087 -0.476661 27.5597 117.105)" stroke="#007DD7" stroke-width="7"/>
<line y1="-3.5" x2="10.2425" y2="-3.5" transform="matrix(-0.303076 0.952966 -0.879087 -0.476661 7.91858 117.222)" stroke="#007DD7" stroke-width="7"/>
<line y1="-3.5" x2="33.2882" y2="-3.5" transform="matrix(-0.303076 0.952966 -0.879087 -0.476661 47.3782 117.222)" stroke="#007DD7" stroke-width="7"/>
<line y1="-3.5" x2="47.3717" y2="-3.5" transform="matrix(-0.303076 0.952966 -0.879087 -0.476661 67.614 117.222)" stroke="#007DD7" stroke-width="7"/>
<line y1="-3.5" x2="57.6142" y2="-3.5" transform="matrix(-0.303076 0.952966 -0.879087 -0.476661 87.8497 117.222)" stroke="#007DD7" stroke-width="7"/>
<line y1="-3.5" x2="51.2126" y2="-3.5" transform="matrix(-0.303076 0.952966 -0.879087 -0.476661 108.085 117.222)" stroke="#007DD7" stroke-width="7"/>
<line y1="-3.5" x2="47.3717" y2="-3.5" transform="matrix(-0.303076 0.952966 -0.879087 -0.476661 128.321 117.222)" stroke="#007DD7" stroke-width="7"/>
<line y1="-3.5" x2="43.5307" y2="-3.5" transform="matrix(-0.303076 0.952966 -0.879087 -0.476661 148.557 117.222)" stroke="#007DD7" stroke-width="7"/>
<ellipse cx="43.2666" cy="38.8519" rx="38.4592" ry="37.9784" fill="#FFDC5E"/>
<path fill-rule="evenodd" clip-rule="evenodd" d="M162.956 106.636H4.64177C1.70049 101.516 0 95.4616 0 88.9736C0 70.5789 13.6692 55.6671 30.531 55.6671C33.1439 55.6671 35.6801 56.0252 38.1008 56.6988C43.141 32.9785 62.692 15.2956 86.0418 15.2956C111.825 15.2956 132.976 36.8563 135.074 64.2985C151.189 69.259 163 85.4319 163 104.618C163 105.294 162.985 105.967 162.956 106.636Z" fill="black"/>
<rect x="72.4326" y="69.935" width="3.84592" height="21.1526" rx="1.92296" transform="rotate(-45 72.4326 69.935)" fill="black"/>
<rect x="41.3436" y="78.7533" width="3.84592" height="27.8829" rx="1.92296" fill="black"/>
<rect x="83.6488" y="41.2556" width="3.84592" height="27.8829" rx="1.92296" transform="rotate(-90 83.6488 41.2556)" fill="black"/>
</svg>
