<svg width="327" height="220" viewBox="0 0 327 220" fill="none" xmlns="http://www.w3.org/2000/svg">
<path fill-rule="evenodd" clip-rule="evenodd" d="M198.594 5C231.923 5 259.014 35.0956 259.634 72.4861C294.47 70.5743 324.222 102.082 326.268 143.273C326.447 146.874 326.408 150.43 326.165 153.924H69C70.4403 110.724 100.577 76.2244 137.543 76.2244L137.58 76.2244C137.555 75.4185 137.543 74.6091 137.543 73.7963C137.543 35.8012 164.876 5 198.594 5Z" fill="#DDDDDD"/>
<path fill-rule="evenodd" clip-rule="evenodd" d="M274.351 153.78H7.81483C2.86292 145.16 0 134.967 0 124.044C0 93.0745 23.0133 67.9691 51.4016 67.9691C55.8007 67.9691 60.0707 68.5719 64.146 69.706C72.6318 29.7708 105.548 0 144.859 0C188.268 0 223.878 36.2994 227.409 82.5009C254.539 90.8522 274.425 118.081 274.425 150.382C274.425 151.521 274.4 152.654 274.351 153.78Z" fill="#848484"/>
<path d="M164.032 119H129.484L124 164.859L142.645 172.503L129.484 220L175 152.849H150.871L164.032 119Z" fill="#FFDC5E"/>
</svg>
